<svg aria-hidden="true" style="position: absolute; width: 0; height: 0; overflow: hidden;" version="1.1" xmlns="http://www.w3.org/2000/svg" xmlns:xlink="http://www.w3.org/1999/xlink">
<defs>
<symbol id="icon-chat" viewBox="0 0 32 32">
<path d="M25.042 18.672v-12.487c0-1.234-1-2.236-2.236-2.236h-19.571c-1.235-0.001-2.236 1.001-2.236 2.236v12.487c0 1.235 1.001 2.236 2.236 2.236h3.729v5.137l5.704-5.137h10.137c1.237 0 2.237-1.001 2.237-2.236zM28.765 8.858h-2.798c0 0 0 9.972 0 10.909s-1.216 2.142-2.153 2.142-10.945 0.055-10.945 0.055c0 1.235 1.001 1.986 2.236 1.986h4.309l5.622 5.102-0.007-5.102h3.736c1.236 0 2.236-0.751 2.236-1.986v-10.932c0-1.234-1-2.174-2.236-2.174z"></path>
</symbol>
<symbol id="icon-files" viewBox="0 0 32 32">
<path d="M16.984 16.047h-8v0.906h8v-0.906zM16.984 19.047h-8v0.969h8v-0.969zM12.016 4.016v3.016h-3.032v3.016h-2.953v18.938h13.969v-3.031h2.953v-2.938h3.016v-19h-13.953zM19.031 28.016h-12.031v-17.063h12.031v17.063zM21.984 25.047h-1.984v-15h-10.047v-2.047h12.031v17.047zM25 22.047h-2.047v-15.016h-9.969v-2.047h12.016v17.063zM16.984 25.031h-8v0.969h8v-0.969zM16.984 22.016h-8v0.969h8v-0.969zM16.999 13.016h-8v1h8v-1z"></path>
</symbol>
<symbol id="icon-home" viewBox="0 0 24 24">
<path d="M2.386 8.211c-0.236 0.184-0.386 0.469-0.386 0.789v11c0 0.828 0.337 1.58 0.879 2.121s1.293 0.879 2.121 0.879h14c0.828 0 1.58-0.337 2.121-0.879s0.879-1.293 0.879-2.121v-11c-0.001-0.3-0.134-0.593-0.386-0.789l-9-7c-0.358-0.275-0.861-0.285-1.228 0zM16 21v-9c0-0.552-0.448-1-1-1h-6c-0.552 0-1 0.448-1 1v9h-3c-0.276 0-0.525-0.111-0.707-0.293s-0.293-0.431-0.293-0.707v-10.511l8-6.222 8 6.222v10.511c0 0.276-0.111 0.525-0.293 0.707s-0.431 0.293-0.707 0.293zM10 21v-8h4v8z"></path>
</symbol>
<symbol id="icon-search" viewBox="0 0 16 16">
<path d="M15.56 15.56c-0.587 0.587-1.538 0.587-2.125 0l-2.652-2.652c-1.090 0.699-2.379 1.116-3.771 1.116-3.872 0-7.012-3.139-7.012-7.012s3.14-7.012 7.012-7.012c3.873 0 7.012 3.139 7.012 7.012 0 1.391-0.417 2.68-1.116 3.771l2.652 2.652c0.587 0.587 0.587 1.538 0 2.125zM7.012 2.003c-2.766 0-5.009 2.242-5.009 5.009s2.243 5.009 5.009 5.009c2.766 0 5.009-2.242 5.009-5.009s-2.242-5.009-5.009-5.009z"></path>
</symbol>
<symbol id="icon-folder" viewBox="0 0 16 16">
<path d="M7 2l2 2h7v11h-16v-13z"></path>
</symbol>
<symbol id="icon-folder-open" viewBox="0 0 16 16">
<path d="M13 15l3-8h-13l-3 8zM2 6l-2 9v-13h4.5l2 2h6.5v2z"></path>
</symbol>
<symbol id="icon-calendar" viewBox="0 0 16 16">
<path d="M5 6h2v2h-2zM8 6h2v2h-2zM11 6h2v2h-2zM2 12h2v2h-2zM5 12h2v2h-2zM8 12h2v2h-2zM5 9h2v2h-2zM8 9h2v2h-2zM11 9h2v2h-2zM2 9h2v2h-2zM13 0v1h-2v-1h-7v1h-2v-1h-2v16h15v-16h-2zM14 15h-13v-11h13v11z"></path>
</symbol>
<symbol id="icon-database" viewBox="0 0 16 16">
<path d="M8 0c-4.418 0-8 1.119-8 2.5v2c0 1.381 3.582 2.5 8 2.5s8-1.119 8-2.5v-2c0-1.381-3.582-2.5-8-2.5z"></path>
<path d="M8 8.5c-4.418 0-8-1.119-8-2.5v3c0 1.381 3.582 2.5 8 2.5s8-1.119 8-2.5v-3c0 1.381-3.582 2.5-8 2.5z"></path>
<path d="M8 13c-4.418 0-8-1.119-8-2.5v3c0 1.381 3.582 2.5 8 2.5s8-1.119 8-2.5v-3c0 1.381-3.582 2.5-8 2.5z"></path>
</symbol>
<symbol id="icon-users" viewBox="0 0 18 16">
<path d="M12 12.041v-0.825c1.102-0.621 2-2.168 2-3.716 0-2.485 0-4.5-3-4.5s-3 2.015-3 4.5c0 1.548 0.898 3.095 2 3.716v0.825c-3.392 0.277-6 1.944-6 3.959h14c0-2.015-2.608-3.682-6-3.959z"></path>
<path d="M5.112 12.427c0.864-0.565 1.939-0.994 3.122-1.256-0.235-0.278-0.449-0.588-0.633-0.922-0.475-0.863-0.726-1.813-0.726-2.748 0-1.344 0-2.614 0.478-3.653 0.464-1.008 1.299-1.633 2.488-1.867-0.264-1.195-0.968-1.98-2.841-1.98-3 0-3 2.015-3 4.5 0 1.548 0.898 3.095 2 3.716v0.825c-3.392 0.277-6 1.944-6 3.959h4.359c0.227-0.202 0.478-0.393 0.753-0.573z"></path>
</symbol>
<symbol id="icon-exit" viewBox="0 0 16 16">
<path d="M12 10v-2h-5v-2h5v-2l3 3zM11 9v4h-5v3l-6-3v-13h11v5h-1v-4h-8l4 2v9h4v-3z"></path>
</symbol>
<symbol id="icon-facebook" viewBox="0 0 16 16">
<path d="M9.5 3h2.5v-3h-2.5c-1.93 0-3.5 1.57-3.5 3.5v1.5h-2v3h2v8h3v-8h2.5l0.5-3h-3v-1.5c0-0.271 0.229-0.5 0.5-0.5z"></path>
</symbol>
<symbol id="icon-twitter" viewBox="0 0 16 16">
<path d="M16 3.538c-0.588 0.263-1.222 0.438-1.884 0.516 0.678-0.406 1.197-1.050 1.444-1.816-0.634 0.375-1.338 0.65-2.084 0.797-0.6-0.638-1.453-1.034-2.397-1.034-1.813 0-3.281 1.469-3.281 3.281 0 0.256 0.028 0.506 0.084 0.747-2.728-0.138-5.147-1.444-6.766-3.431-0.281 0.484-0.444 1.050-0.444 1.65 0 1.138 0.578 2.144 1.459 2.731-0.538-0.016-1.044-0.166-1.488-0.409 0 0.013 0 0.028 0 0.041 0 1.591 1.131 2.919 2.634 3.219-0.275 0.075-0.566 0.116-0.866 0.116-0.212 0-0.416-0.022-0.619-0.059 0.419 1.303 1.631 2.253 3.066 2.281-1.125 0.881-2.538 1.406-4.078 1.406-0.266 0-0.525-0.016-0.784-0.047 1.456 0.934 3.181 1.475 5.034 1.475 6.037 0 9.341-5.003 9.341-9.341 0-0.144-0.003-0.284-0.009-0.425 0.641-0.459 1.197-1.038 1.637-1.697z"></path>
</symbol>
<symbol id="icon-files-empty" viewBox="0 0 32 32">
<path d="M28.681 11.159c-0.694-0.947-1.662-2.053-2.724-3.116s-2.169-2.030-3.116-2.724c-1.612-1.182-2.393-1.319-2.841-1.319h-11.5c-1.379 0-2.5 1.122-2.5 2.5v23c0 1.378 1.121 2.5 2.5 2.5h19c1.378 0 2.5-1.122 2.5-2.5v-15.5c0-0.448-0.137-1.23-1.319-2.841zM24.543 9.457c0.959 0.959 1.712 1.825 2.268 2.543h-4.811v-4.811c0.718 0.556 1.584 1.309 2.543 2.268v0zM28 29.5c0 0.271-0.229 0.5-0.5 0.5h-19c-0.271 0-0.5-0.229-0.5-0.5v-23c0-0.271 0.229-0.5 0.5-0.5 0 0 11.499-0 11.5 0v7c0 0.552 0.448 1 1 1h7v15.5z"></path>
<path d="M18.841 1.319c-1.612-1.182-2.393-1.319-2.841-1.319h-11.5c-1.378 0-2.5 1.121-2.5 2.5v23c0 1.207 0.86 2.217 2 2.45v-25.45c0-0.271 0.229-0.5 0.5-0.5h15.215c-0.301-0.248-0.595-0.477-0.873-0.681z"></path>
</symbol>
<symbol id="icon-more_vert" viewBox="0 0 24 24">
<path d="M12 15.984q0.797 0 1.406 0.609t0.609 1.406-0.609 1.406-1.406 0.609-1.406-0.609-0.609-1.406 0.609-1.406 1.406-0.609zM12 9.984q0.797 0 1.406 0.609t0.609 1.406-0.609 1.406-1.406 0.609-1.406-0.609-0.609-1.406 0.609-1.406 1.406-0.609zM12 8.016q-0.797 0-1.406-0.609t-0.609-1.406 0.609-1.406 1.406-0.609 1.406 0.609 0.609 1.406-0.609 1.406-1.406 0.609z"></path>
</symbol>
</defs>
</svg>
